<mxfile host="app.diagrams.net" agent="Mozilla/5.0 (Windows NT 10.0; Win64; x64; rv:131.0) Gecko/20100101 Firefox/131.0" version="24.8.4">
  <diagram id="hu70psksWe3vvj_6axuI" name="Seite-1">
    <mxGraphModel dx="937" dy="1025" grid="1" gridSize="10" guides="1" tooltips="1" connect="1" arrows="1" fold="1" page="1" pageScale="1" pageWidth="827" pageHeight="1169" background="#FFFFFF" math="0" shadow="0">
      <root>
        <mxCell id="0" />
        <mxCell id="40FKXxnOoaFR" value="Layer 0" parent="0" />
        <mxCell id="WPHVXafzVZDq" value="Layer 1" parent="0" />
        <mxCell id="2" style="shape=rect;fillColor=none;strokeColor=none;shadow=1;strokeWidth=2;opacity=100.0;gliffyId=124;" parent="WPHVXafzVZDq" vertex="1">
          <mxGeometry x="160" y="140" width="676.5" height="1280" as="geometry" />
        </mxCell>
        <mxCell id="3" value="&lt;div style=&#39;width: 610.0px;height:auto;word-break: break-word;line-height:1em;&#39;&gt;&lt;div align=&quot;center&quot;&gt;&lt;span style=&quot;text-decoration:underline;font-weight:normal;font-family:Arial;font-size:12px; line-height: normal;&quot;&gt;app_processor Process&lt;br /&gt;&lt;/span&gt;&lt;/div&gt;&lt;/div&gt;" style="shape=rect;shadow=1;strokeWidth=2;fillColor=#FFFFFF;strokeColor=#000000;opacity=100.0;html=1;nl2Br=0;verticalAlign=top;align=center;spacingLeft=0.0;spacingRight=0;spacingTop=-5.0;spacingBottom=2;whiteSpace=wrap;gliffyId=125;" parent="2" vertex="1">
          <mxGeometry width="676.5" height="18" as="geometry" />
        </mxCell>
        <mxCell id="4" value="&lt;div style=&quot;width: 610.0px;height:auto;word-break: break-word;line-height:1em;&quot;&gt;&lt;div style=&quot;background-color:#ffffff;color:#080808&quot;&gt;&lt;pre style=&quot;font-family:&#39;JetBrains Mono&#39;,monospace;font-size:9.8pt;&quot;&gt;&lt;span style=&quot;color:#000000;&quot;&gt;calling arguments:&lt;br&gt;multiprocessing_config&lt;/span&gt;: &lt;span style=&quot;color:#000080;&quot;&gt;dict&lt;/span&gt;&lt;br&gt;&lt;span style=&quot;color:#000000;&quot;&gt;app&lt;/span&gt;: &lt;span style=&quot;color:#000080;&quot;&gt;type&lt;/span&gt;&lt;br&gt;&lt;span style=&quot;color:#000000;&quot;&gt;app_params&lt;/span&gt;: &lt;span style=&quot;color:#000000;&quot;&gt;ParameterCollection&lt;/span&gt;&lt;br&gt;&lt;span style=&quot;color:#000000;&quot;&gt;app_config&lt;/span&gt;: &lt;span style=&quot;color:#000080;&quot;&gt;dict&lt;/span&gt;&lt;br&gt;&lt;span style=&quot;color:#000000;&quot;&gt;**kwargs: dict&lt;/span&gt;&lt;/pre&gt;&lt;/div&gt;&lt;/div&gt;" style="shape=rect;shadow=1;strokeWidth=2;fillColor=#FFFFFF;strokeColor=#000000;opacity=100.0;html=1;nl2Br=0;verticalAlign=top;align=left;spacingLeft=0.0;spacingRight=0;spacingTop=-5.0;spacingBottom=2;whiteSpace=wrap;gliffyId=127;" parent="2" vertex="1">
          <mxGeometry y="18" width="676.5" height="1182" as="geometry" />
        </mxCell>
        <mxCell id="8" value="&lt;div style=&#39;width: 93.0px;height:auto;word-break: break-word;line-height:1em;&#39;&gt;&lt;div align=&quot;center&quot;&gt;&lt;span style=&quot;text-decoration:none;font-family:Arial;font-size:12px; line-height: normal;&quot;&gt;finish process&lt;/span&gt;&lt;/div&gt;&lt;/div&gt;" style="shape=rect;shadow=0;strokeWidth=2;fillColor=#FFFFFF;strokeColor=#333333;opacity=100.0;html=1;nl2Br=0;verticalAlign=middle;align=center;spacingLeft=2.0;spacingRight=0;whiteSpace=wrap;gliffyId=136;" parent="2" vertex="1">
          <mxGeometry x="50" y="1120" width="100" height="60" as="geometry" />
        </mxCell>
        <mxCell id="5" value="&lt;div style=&#39;width: 93.0px;height:auto;word-break: break-word;line-height:1em;&#39;&gt;&lt;div align=&quot;center&quot;&gt;&lt;span style=&quot;text-decoration:none;font-family:Arial;font-size:12px; line-height: 0;&quot;&gt;&lt;span style=&quot;text-decoration:none; line-height: normal;&quot;&gt;start app instance and configure app&lt;br /&gt;&lt;/span&gt;&lt;/span&gt;&lt;/div&gt;&lt;/div&gt;" style="shape=rect;shadow=0;strokeWidth=2;fillColor=#FFFFFF;strokeColor=#333333;opacity=100.0;html=1;nl2Br=0;verticalAlign=middle;align=center;spacingLeft=2.0;spacingRight=0;whiteSpace=wrap;gliffyId=129;" parent="WPHVXafzVZDq" vertex="1">
          <mxGeometry x="420" y="165" width="100" height="60" as="geometry" />
        </mxCell>
        <mxCell id="6" value="&lt;div style=&quot;width: 111.666664px;height:auto;word-break: break-word;line-height:1em;&quot;&gt;&lt;div align=&quot;center&quot;&gt;&lt;span style=&quot;text-decoration:none;font-family:Arial;font-size:12px; line-height: normal;&quot;&gt;stop or all input processed?&lt;/span&gt;&lt;/div&gt;&lt;/div&gt;" style="shape=rhombus;perimeter=rhombusPerimeter;shadow=0;strokeWidth=2;fillColor=#FFFFFF;strokeColor=#333333;opacity=100.0;html=1;nl2Br=0;verticalAlign=middle;align=center;spacingLeft=2.6666667;spacingRight=0;whiteSpace=wrap;gliffyId=131;" parent="WPHVXafzVZDq" vertex="1">
          <mxGeometry x="410" y="260" width="120" height="60" as="geometry" />
        </mxCell>
        <mxCell id="7" style="shape=filledEdge;strokeWidth=2;strokeColor=#000000;fillColor=none;startArrow=none;startFill=0;startSize=6;endArrow=open;endFill=0;endSize=6;rounded=1;gliffyId=133;edgeStyle=orthogonalEdgeStyle;" parent="WPHVXafzVZDq" source="5" target="6" edge="1">
          <mxGeometry width="1" height="62" relative="1" as="geometry">
            <Array as="points">
              <mxPoint x="470" y="225" />
              <mxPoint x="470" y="236.6666717529297" />
              <mxPoint x="470" y="248.3333282470703" />
              <mxPoint x="470" y="260" />
            </Array>
          </mxGeometry>
        </mxCell>
        <mxCell id="9" style="shape=filledEdge;strokeWidth=2;strokeColor=#000000;fillColor=none;startArrow=none;startFill=0;startSize=6;endArrow=open;endFill=0;endSize=6;rounded=1;html=1;nl2Br=0;gliffyId=140;edgeStyle=orthogonalEdgeStyle;entryX=0.5;entryY=0;entryDx=0;entryDy=0;" parent="WPHVXafzVZDq" source="6" target="8" edge="1">
          <mxGeometry width="133" height="495" relative="1" as="geometry">
            <Array as="points">
              <mxPoint x="260" y="290" />
            </Array>
          </mxGeometry>
        </mxCell>
        <mxCell id="10" value="&lt;div style=&#39;width: 30.25px;height:auto;word-break: break-word;line-height:1em;&#39;&gt;&lt;div align=&quot;center&quot;&gt;&lt;span style=&quot;font-family:Arial;font-size:12px; line-height: normal;&quot;&gt;yes&lt;/span&gt;&lt;/div&gt;&lt;/div&gt;" style="text;html=1;nl2Br=0;points=[];labelBackgroundColor=#FFFFFF;html=1;nl2Br=0;verticalAlign=middle;align=center;spacingLeft=0.0;spacingRight=0;gliffyId=141;" parent="9" vertex="1">
          <mxGeometry x="-0.9279731804475269" relative="1" as="geometry">
            <mxPoint as="offset" />
          </mxGeometry>
        </mxCell>
        <mxCell id="11" value="&lt;div style=&#39;width: 93.0px;height:auto;word-break: break-word;line-height:1em;&#39;&gt;&lt;div align=&quot;center&quot;&gt;&lt;span style=&quot;text-decoration:none;font-family:Arial;font-size:12px; line-height: 0;&quot;&gt;&lt;span style=&quot;text-decoration:none; line-height: normal;&quot;&gt;signal in &lt;br /&gt;stop queue?&lt;br /&gt;&lt;/span&gt;&lt;/span&gt;&lt;/div&gt;&lt;/div&gt;" style="shape=rhombus;perimeter=rhombusPerimeter;shadow=0;strokeWidth=2;fillColor=#FFFFFF;strokeColor=#333333;opacity=100.0;html=1;nl2Br=0;verticalAlign=middle;align=center;spacingLeft=2.0;spacingRight=0;whiteSpace=wrap;gliffyId=144;" parent="WPHVXafzVZDq" vertex="1">
          <mxGeometry x="420" y="360" width="100" height="60" as="geometry" />
        </mxCell>
        <mxCell id="12" style="shape=filledEdge;strokeWidth=2;strokeColor=#000000;fillColor=none;startArrow=none;startFill=0;startSize=6;endArrow=open;endFill=0;endSize=6;rounded=1;html=1;nl2Br=0;gliffyId=146;edgeStyle=orthogonalEdgeStyle;" parent="WPHVXafzVZDq" source="11" target="6" edge="1">
          <mxGeometry width="18" height="121" relative="1" as="geometry">
            <Array as="points">
              <mxPoint x="520" y="390" />
              <mxPoint x="570" y="390" />
              <mxPoint x="570" y="290" />
              <mxPoint x="530" y="290" />
            </Array>
          </mxGeometry>
        </mxCell>
        <mxCell id="13" value="&lt;div style=&#39;width: 63.25px;height:auto;word-break: break-word;line-height:1em;&#39;&gt;&lt;div align=&quot;center&quot;&gt;&lt;span style=&quot;font-family:Arial;font-size:12px; line-height: normal;&quot;&gt;yes:&lt;br /&gt;send stop&lt;/span&gt;&lt;/div&gt;&lt;/div&gt;" style="text;html=1;nl2Br=0;points=[];labelBackgroundColor=#FFFFFF;html=1;nl2Br=0;verticalAlign=middle;align=center;spacingLeft=0.0;spacingRight=0;gliffyId=147;" parent="12" vertex="1">
          <mxGeometry relative="1" as="geometry">
            <mxPoint as="offset" />
          </mxGeometry>
        </mxCell>
        <mxCell id="14" style="shape=filledEdge;strokeWidth=2;strokeColor=#000000;fillColor=none;startArrow=none;startFill=0;startSize=6;endArrow=open;endFill=0;endSize=6;rounded=1;html=1;nl2Br=0;gliffyId=149;edgeStyle=orthogonalEdgeStyle;" parent="WPHVXafzVZDq" source="6" target="11" edge="1">
          <mxGeometry width="4" height="23" relative="1" as="geometry">
            <Array as="points">
              <mxPoint x="470" y="320" />
              <mxPoint x="470" y="333.33331298828125" />
              <mxPoint x="470" y="346.6666564941406" />
              <mxPoint x="470" y="360" />
            </Array>
          </mxGeometry>
        </mxCell>
        <mxCell id="15" value="&lt;div style=&#39;width: 23.8333px;height:auto;word-break: break-word;line-height:1em;&#39;&gt;&lt;div align=&quot;center&quot;&gt;&lt;span style=&quot;font-family:Arial;font-size:12px; line-height: normal;&quot;&gt;no&lt;/span&gt;&lt;/div&gt;&lt;/div&gt;" style="text;html=1;nl2Br=0;points=[];labelBackgroundColor=#FFFFFF;html=1;nl2Br=0;verticalAlign=middle;align=center;spacingLeft=0.0;spacingRight=0;gliffyId=173;" parent="14" vertex="1">
          <mxGeometry relative="1" as="geometry">
            <mxPoint as="offset" />
          </mxGeometry>
        </mxCell>
        <mxCell id="16" value="&lt;div style=&#39;width: 93.0px;height:auto;word-break: break-word;line-height:1em;&#39;&gt;&lt;div align=&quot;center&quot;&gt;&lt;span style=&quot;text-decoration:none;font-family:Arial;font-size:12px; line-height: 0;&quot;&gt;&lt;span style=&quot;text-decoration:none; line-height: normal;&quot;&gt;app carry-on?&lt;br /&gt;&lt;/span&gt;&lt;/span&gt;&lt;/div&gt;&lt;/div&gt;" style="shape=rhombus;perimeter=rhombusPerimeter;shadow=0;strokeWidth=2;fillColor=#FFFFFF;strokeColor=#333333;opacity=100.0;html=1;nl2Br=0;verticalAlign=middle;align=center;spacingLeft=2.0;spacingRight=0;whiteSpace=wrap;gliffyId=151;" parent="WPHVXafzVZDq" vertex="1">
          <mxGeometry x="420" y="459.5" width="100" height="60" as="geometry" />
        </mxCell>
        <mxCell id="17" value="&lt;div style=&#39;width: 93.0px;height:auto;word-break: break-word;line-height:1em;&#39;&gt;&lt;div align=&quot;center&quot;&gt;&lt;span style=&quot;text-decoration:none;font-family:Arial;font-size:12px; line-height: 0;&quot;&gt;&lt;span style=&quot;text-decoration:none; line-height: normal;&quot;&gt;app carry-on?&lt;br /&gt;&lt;/span&gt;&lt;/span&gt;&lt;/div&gt;&lt;/div&gt;" style="shape=rhombus;perimeter=rhombusPerimeter;shadow=0;strokeWidth=2;fillColor=#FFFFFF;strokeColor=#333333;opacity=100.0;html=1;nl2Br=0;verticalAlign=middle;align=center;spacingLeft=2.0;spacingRight=0;whiteSpace=wrap;gliffyId=194;" parent="WPHVXafzVZDq" vertex="1">
          <mxGeometry x="420" y="1020" width="100" height="50" as="geometry" />
        </mxCell>
        <mxCell id="18" style="shape=filledEdge;strokeWidth=2;strokeColor=#000000;fillColor=none;startArrow=none;startFill=0;startSize=6;endArrow=open;endFill=0;endSize=6;rounded=1;html=1;nl2Br=0;gliffyId=153;edgeStyle=orthogonalEdgeStyle;" parent="WPHVXafzVZDq" source="11" target="16" edge="1">
          <mxGeometry width="9" height="25" relative="1" as="geometry">
            <Array as="points">
              <mxPoint x="470" y="420" />
              <mxPoint x="470" y="433.1666564941406" />
              <mxPoint x="470" y="446.33331298828125" />
              <mxPoint x="470" y="459.5" />
            </Array>
          </mxGeometry>
        </mxCell>
        <mxCell id="19" value="&lt;div style=&#39;width: 23.8333px;height:auto;word-break: break-word;line-height:1em;&#39;&gt;&lt;div align=&quot;center&quot;&gt;&lt;span style=&quot;font-family:Arial;font-size:12px; line-height: normal;&quot;&gt;no&lt;/span&gt;&lt;/div&gt;&lt;/div&gt;" style="text;html=1;nl2Br=0;points=[];labelBackgroundColor=#FFFFFF;html=1;nl2Br=0;verticalAlign=middle;align=center;spacingLeft=0.0;spacingRight=0;gliffyId=199;" parent="18" vertex="1">
          <mxGeometry relative="1" as="geometry">
            <mxPoint as="offset" />
          </mxGeometry>
        </mxCell>
        <mxCell id="20" value="&lt;div style=&#39;width: 93.0px;height:auto;word-break: break-word;line-height:1em;&#39;&gt;&lt;div align=&quot;center&quot;&gt;&lt;span style=&quot;text-decoration:none;font-family:Arial;font-size:12px; line-height: 0;&quot;&gt;&lt;span style=&quot;text-decoration:none; line-height: normal;&quot;&gt;get task from input_queue&lt;br /&gt;&lt;/span&gt;&lt;/span&gt;&lt;/div&gt;&lt;/div&gt;" style="shape=rect;shadow=0;strokeWidth=2;fillColor=#FFFFFF;strokeColor=#333333;opacity=100.0;html=1;nl2Br=0;verticalAlign=middle;align=center;spacingLeft=2.0;spacingRight=0;whiteSpace=wrap;gliffyId=155;" parent="WPHVXafzVZDq" vertex="1">
          <mxGeometry x="420" y="550" width="100" height="60" as="geometry" />
        </mxCell>
        <mxCell id="21" value="&lt;div style=&#39;width: 93.0px;height:auto;word-break: break-word;line-height:1em;&#39;&gt;&lt;div align=&quot;center&quot;&gt;&lt;span style=&quot;text-decoration:none;font-family:Arial;font-size:12px; line-height: 0;&quot;&gt;&lt;span style=&quot;text-decoration:none; line-height: normal;&quot;&gt;queue empty?&lt;br /&gt;&lt;/span&gt;&lt;/span&gt;&lt;/div&gt;&lt;/div&gt;" style="shape=rhombus;perimeter=rhombusPerimeter;shadow=0;strokeWidth=2;fillColor=#FFFFFF;strokeColor=#333333;opacity=100.0;html=1;nl2Br=0;verticalAlign=middle;align=center;spacingLeft=2.0;spacingRight=0;whiteSpace=wrap;gliffyId=157;" parent="WPHVXafzVZDq" vertex="1">
          <mxGeometry x="420" y="640" width="100" height="60" as="geometry" />
        </mxCell>
        <mxCell id="22" value="&lt;div style=&#39;width: 93.0px;height:auto;word-break: break-word;line-height:1em;&#39;&gt;&lt;div align=&quot;center&quot;&gt;&lt;span style=&quot;text-decoration:none;font-family:Arial;font-size:12px; line-height: normal;&quot;&gt;wait&lt;/span&gt;&lt;/div&gt;&lt;/div&gt;" style="shape=rect;shadow=0;strokeWidth=2;fillColor=#FFFFFF;strokeColor=#333333;opacity=100.0;html=1;nl2Br=0;verticalAlign=middle;align=center;spacingLeft=2.0;spacingRight=0;whiteSpace=wrap;gliffyId=159;" parent="WPHVXafzVZDq" vertex="1">
          <mxGeometry x="590" y="640" width="100" height="60" as="geometry" />
        </mxCell>
        <mxCell id="23" style="shape=filledEdge;strokeWidth=2;strokeColor=#000000;fillColor=none;startArrow=none;startFill=0;startSize=6;endArrow=open;endFill=0;endSize=6;rounded=1;html=1;nl2Br=0;gliffyId=162;edgeStyle=orthogonalEdgeStyle;" parent="WPHVXafzVZDq" source="16" target="20" edge="1">
          <mxGeometry width="2" height="17" relative="1" as="geometry">
            <Array as="points">
              <mxPoint x="470" y="519.5" />
              <mxPoint x="470" y="529.6666259765625" />
              <mxPoint x="470" y="539.8333129882812" />
              <mxPoint x="470" y="550" />
            </Array>
          </mxGeometry>
        </mxCell>
        <mxCell id="24" value="&lt;div style=&#39;width: 30.25px;height:auto;word-break: break-word;line-height:1em;&#39;&gt;&lt;div align=&quot;center&quot;&gt;&lt;span style=&quot;font-family:Arial;font-size:12px; line-height: normal;&quot;&gt;yes&lt;/span&gt;&lt;/div&gt;&lt;/div&gt;" style="text;html=1;nl2Br=0;points=[];labelBackgroundColor=#FFFFFF;html=1;nl2Br=0;verticalAlign=middle;align=center;spacingLeft=0.0;spacingRight=0;gliffyId=178;" parent="23" vertex="1">
          <mxGeometry relative="1" as="geometry">
            <mxPoint as="offset" />
          </mxGeometry>
        </mxCell>
        <mxCell id="25" style="shape=filledEdge;strokeWidth=2;strokeColor=#000000;fillColor=none;startArrow=none;startFill=0;startSize=6;endArrow=open;endFill=0;endSize=6;rounded=1;gliffyId=164;edgeStyle=orthogonalEdgeStyle;" parent="WPHVXafzVZDq" source="20" target="21" edge="1">
          <mxGeometry width="1" height="22" relative="1" as="geometry">
            <Array as="points">
              <mxPoint x="470" y="610" />
              <mxPoint x="470" y="620" />
              <mxPoint x="470" y="630" />
              <mxPoint x="470" y="640" />
            </Array>
          </mxGeometry>
        </mxCell>
        <mxCell id="26" style="shape=filledEdge;strokeWidth=2;strokeColor=#000000;fillColor=none;startArrow=none;startFill=0;startSize=6;endArrow=open;endFill=0;endSize=6;rounded=1;html=1;nl2Br=0;gliffyId=165;edgeStyle=orthogonalEdgeStyle;" parent="WPHVXafzVZDq" source="21" target="22" edge="1">
          <mxGeometry width="100" height="1" relative="1" as="geometry">
            <Array as="points">
              <mxPoint x="520" y="670" />
              <mxPoint x="543.3333129882812" y="670" />
              <mxPoint x="566.6666870117188" y="670" />
              <mxPoint x="590" y="670" />
            </Array>
          </mxGeometry>
        </mxCell>
        <mxCell id="27" value="&lt;div style=&#39;width: 30.25px;height:auto;word-break: break-word;line-height:1em;&#39;&gt;&lt;div align=&quot;center&quot;&gt;&lt;span style=&quot;font-family:Arial;font-size:12px; line-height: normal;&quot;&gt;yes&lt;/span&gt;&lt;/div&gt;&lt;/div&gt;" style="text;html=1;nl2Br=0;points=[];labelBackgroundColor=#FFFFFF;html=1;nl2Br=0;verticalAlign=middle;align=center;spacingLeft=0.0;spacingRight=0;gliffyId=172;" parent="26" vertex="1">
          <mxGeometry relative="1" as="geometry">
            <mxPoint as="offset" />
          </mxGeometry>
        </mxCell>
        <mxCell id="28" style="shape=filledEdge;strokeWidth=2;strokeColor=#000000;fillColor=none;startArrow=none;startFill=0;startSize=6;endArrow=open;endFill=0;endSize=6;rounded=1;gliffyId=167;edgeStyle=orthogonalEdgeStyle;" parent="WPHVXafzVZDq" source="22" target="6" edge="1">
          <mxGeometry width="140" height="429" relative="1" as="geometry">
            <Array as="points">
              <mxPoint x="640" y="640" />
              <mxPoint x="640" y="290" />
              <mxPoint x="530" y="290" />
            </Array>
          </mxGeometry>
        </mxCell>
        <mxCell id="29" value="&lt;div style=&#39;width: 93.0px;height:auto;word-break: break-word;line-height:1em;&#39;&gt;&lt;div align=&quot;center&quot;&gt;&lt;span style=&quot;text-decoration:none;font-family:Arial;font-size:12px; line-height: normal;&quot;&gt;all jobs done?&lt;br /&gt;&lt;/span&gt;&lt;/div&gt;&lt;/div&gt;" style="shape=rhombus;perimeter=rhombusPerimeter;shadow=0;strokeWidth=2;fillColor=none;pointerEvents=0;strokeColor=#000000;opacity=100.0;html=1;nl2Br=0;verticalAlign=middle;align=center;spacingLeft=2.0;spacingRight=0;whiteSpace=wrap;gliffyId=170;" parent="WPHVXafzVZDq" vertex="1">
          <mxGeometry x="420" y="740" width="100" height="60" as="geometry" />
        </mxCell>
        <mxCell id="30" style="shape=filledEdge;strokeWidth=2;strokeColor=#000000;fillColor=none;startArrow=none;startFill=0;startSize=6;endArrow=open;endFill=0;endSize=6;rounded=1;html=1;nl2Br=0;gliffyId=174;edgeStyle=orthogonalEdgeStyle;" parent="WPHVXafzVZDq" source="21" target="29" edge="1">
          <mxGeometry width="2" height="26" relative="1" as="geometry">
            <Array as="points">
              <mxPoint x="470" y="700" />
              <mxPoint x="470" y="713.3333129882812" />
              <mxPoint x="470" y="726.6666259765625" />
              <mxPoint x="470" y="740" />
            </Array>
          </mxGeometry>
        </mxCell>
        <mxCell id="31" value="&lt;div style=&#39;width: 23.8333px;height:auto;word-break: break-word;line-height:1em;&#39;&gt;&lt;div align=&quot;center&quot;&gt;&lt;span style=&quot;font-family:Arial;font-size:12px; line-height: normal;&quot;&gt;no&lt;/span&gt;&lt;/div&gt;&lt;/div&gt;" style="text;html=1;nl2Br=0;points=[];labelBackgroundColor=#FFFFFF;html=1;nl2Br=0;verticalAlign=middle;align=center;spacingLeft=0.0;spacingRight=0;gliffyId=175;" parent="30" vertex="1">
          <mxGeometry relative="1" as="geometry">
            <mxPoint as="offset" />
          </mxGeometry>
        </mxCell>
        <mxCell id="32" style="shape=filledEdge;strokeWidth=2;strokeColor=#000000;fillColor=none;startArrow=none;startFill=0;startSize=6;endArrow=open;endFill=0;endSize=6;rounded=1;html=1;nl2Br=0;gliffyId=180;edgeStyle=orthogonalEdgeStyle;" parent="WPHVXafzVZDq" source="29" target="6" edge="1">
          <mxGeometry width="14" height="587" relative="1" as="geometry">
            <Array as="points">
              <mxPoint x="520" y="770" />
              <mxPoint x="720" y="770" />
              <mxPoint x="720" y="290" />
              <mxPoint x="530" y="290" />
            </Array>
          </mxGeometry>
        </mxCell>
        <mxCell id="33" value="&lt;div style=&#39;width: 66.0px;height:auto;word-break: break-word;line-height:1em;&#39;&gt;&lt;div align=&quot;center&quot;&gt;&lt;span style=&quot;font-family:Arial;font-size:12px; line-height: normal;&quot;&gt;yes: &lt;/span&gt;&lt;/div&gt;&lt;div align=&quot;center&quot;&gt;&lt;span style=&quot;font-family:Arial;font-size:12px; line-height: normal;&quot;&gt;all input&lt;/span&gt;&lt;/div&gt;&lt;div align=&quot;center&quot;&gt;&lt;span style=&quot;font-family:Arial;font-size:12px; line-height: normal;&quot;&gt;processed&lt;/span&gt;&lt;/div&gt;&lt;/div&gt;" style="text;html=1;nl2Br=0;points=[];labelBackgroundColor=#FFFFFF;html=1;nl2Br=0;verticalAlign=middle;align=center;spacingLeft=0.0;spacingRight=0;gliffyId=182;" parent="32" vertex="1">
          <mxGeometry x="-0.8982151522918951" relative="1" as="geometry">
            <mxPoint as="offset" />
          </mxGeometry>
        </mxCell>
        <mxCell id="34" value="&lt;div style=&#39;width: 93.0px;height:auto;word-break: break-word;line-height:1em;&#39;&gt;&lt;div align=&quot;center&quot;&gt;&lt;span style=&quot;text-decoration:none;font-family:Arial;font-size:12px; line-height: 0;&quot;&gt;&lt;span style=&quot;text-decoration:none; line-height: normal;&quot;&gt;run&lt;br /&gt;&lt;/span&gt;&lt;/span&gt;&lt;/div&gt;&lt;div align=&quot;center&quot;&gt;&lt;span style=&quot;text-decoration:none;font-family:Arial;font-size:12px; line-height: 0;&quot;&gt;&lt;span style=&quot;text-decoration:none; line-height: normal;&quot;&gt;app pre_cycle&lt;/span&gt;&lt;/span&gt;&lt;/div&gt;&lt;/div&gt;" style="shape=rect;shadow=0;strokeWidth=2;fillColor=#FFFFFF;strokeColor=#333333;opacity=100.0;html=1;nl2Br=0;verticalAlign=middle;align=center;spacingLeft=2.0;spacingRight=0;whiteSpace=wrap;gliffyId=183;" parent="WPHVXafzVZDq" vertex="1">
          <mxGeometry x="420" y="840" width="100" height="60" as="geometry" />
        </mxCell>
        <mxCell id="35" value="&lt;div style=&#39;width: 93.0px;height:auto;word-break: break-word;line-height:1em;&#39;&gt;&lt;div align=&quot;center&quot;&gt;&lt;span style=&quot;text-decoration:none;font-family:Arial;font-size:12px; line-height: 0;&quot;&gt;&lt;span style=&quot;text-decoration:none; line-height: normal;&quot;&gt;check app &lt;/span&gt;&lt;/span&gt;&lt;/div&gt;&lt;div align=&quot;center&quot;&gt;&lt;span style=&quot;text-decoration:none;font-family:Arial;font-size:12px; line-height: 0;&quot;&gt;&lt;span style=&quot;text-decoration:none; line-height: normal;&quot;&gt;carry-on&lt;br /&gt;&lt;/span&gt;&lt;/span&gt;&lt;/div&gt;&lt;/div&gt;" style="shape=rect;shadow=0;strokeWidth=2;fillColor=#FFFFFF;strokeColor=#333333;opacity=100.0;html=1;nl2Br=0;verticalAlign=middle;align=center;spacingLeft=2.0;spacingRight=0;whiteSpace=wrap;gliffyId=185;" parent="WPHVXafzVZDq" vertex="1">
          <mxGeometry x="420" y="930" width="100" height="60" as="geometry" />
        </mxCell>
        <mxCell id="36" style="shape=filledEdge;strokeWidth=2;strokeColor=#000000;fillColor=none;startArrow=none;startFill=0;startSize=6;endArrow=open;endFill=0;endSize=6;rounded=1;html=1;nl2Br=0;gliffyId=187;edgeStyle=orthogonalEdgeStyle;" parent="WPHVXafzVZDq" source="16" target="35" edge="1">
          <mxGeometry width="2" height="592" relative="1" as="geometry">
            <Array as="points">
              <mxPoint x="420" y="489.5" />
              <mxPoint x="380" y="489.5" />
              <mxPoint x="380" y="960" />
              <mxPoint x="420" y="960" />
            </Array>
          </mxGeometry>
        </mxCell>
        <mxCell id="37" value="&lt;div style=&#39;width: 23.8333px;height:auto;word-break: break-word;line-height:1em;&#39;&gt;&lt;div align=&quot;center&quot;&gt;&lt;span style=&quot;font-family:Arial;font-size:12px; line-height: normal;&quot;&gt;no&lt;/span&gt;&lt;/div&gt;&lt;/div&gt;" style="text;html=1;nl2Br=0;points=[];labelBackgroundColor=#FFFFFF;html=1;nl2Br=0;verticalAlign=middle;align=center;spacingLeft=0.0;spacingRight=0;gliffyId=188;" parent="36" vertex="1">
          <mxGeometry relative="1" as="geometry">
            <mxPoint as="offset" />
          </mxGeometry>
        </mxCell>
        <mxCell id="38" style="shape=filledEdge;strokeWidth=2;strokeColor=#000000;fillColor=none;startArrow=none;startFill=0;startSize=6;endArrow=open;endFill=0;endSize=6;rounded=1;html=1;nl2Br=0;gliffyId=190;edgeStyle=orthogonalEdgeStyle;" parent="WPHVXafzVZDq" source="29" target="34" edge="1">
          <mxGeometry width="5" height="28" relative="1" as="geometry">
            <Array as="points">
              <mxPoint x="470" y="800" />
              <mxPoint x="470" y="813.3333129882812" />
              <mxPoint x="470" y="826.6666259765625" />
              <mxPoint x="470" y="840" />
            </Array>
          </mxGeometry>
        </mxCell>
        <mxCell id="39" value="&lt;div style=&#39;width: 23.8333px;height:auto;word-break: break-word;line-height:1em;&#39;&gt;&lt;div align=&quot;center&quot;&gt;&lt;span style=&quot;font-family:Arial;font-size:12px; line-height: normal;&quot;&gt;no&lt;/span&gt;&lt;/div&gt;&lt;/div&gt;" style="text;html=1;nl2Br=0;points=[];labelBackgroundColor=#FFFFFF;html=1;nl2Br=0;verticalAlign=middle;align=center;spacingLeft=0.0;spacingRight=0;gliffyId=191;" parent="38" vertex="1">
          <mxGeometry relative="1" as="geometry">
            <mxPoint as="offset" />
          </mxGeometry>
        </mxCell>
        <mxCell id="40" style="shape=filledEdge;strokeWidth=2;strokeColor=#000000;fillColor=none;startArrow=none;startFill=0;startSize=6;endArrow=open;endFill=0;endSize=6;rounded=1;gliffyId=192;edgeStyle=orthogonalEdgeStyle;" parent="WPHVXafzVZDq" source="34" target="35" edge="1">
          <mxGeometry width="2" height="50" relative="1" as="geometry">
            <Array as="points">
              <mxPoint x="470" y="900.0000610351562" />
              <mxPoint x="470" y="910.0000610351562" />
              <mxPoint x="470" y="920.0000610351562" />
              <mxPoint x="470" y="930.0000610351562" />
            </Array>
          </mxGeometry>
        </mxCell>
        <mxCell id="41" style="shape=filledEdge;strokeWidth=2;strokeColor=#000000;fillColor=none;startArrow=none;startFill=0;startSize=6;endArrow=open;endFill=0;endSize=6;rounded=1;gliffyId=196;edgeStyle=orthogonalEdgeStyle;" parent="WPHVXafzVZDq" source="35" target="17" edge="1">
          <mxGeometry width="5" height="33" relative="1" as="geometry">
            <Array as="points">
              <mxPoint x="470" y="990.0000610351562" />
              <mxPoint x="470" y="1000.0000610351562" />
              <mxPoint x="470" y="1010.0000610351562" />
              <mxPoint x="470" y="1020.0000610351562" />
            </Array>
          </mxGeometry>
        </mxCell>
        <mxCell id="42" style="shape=filledEdge;strokeWidth=2;strokeColor=#000000;fillColor=none;startArrow=none;startFill=0;startSize=6;endArrow=open;endFill=0;endSize=6;rounded=1;html=1;nl2Br=0;gliffyId=201;edgeStyle=orthogonalEdgeStyle;" parent="WPHVXafzVZDq" source="17" target="6" edge="1">
          <mxGeometry width="10" height="754" relative="1" as="geometry">
            <Array as="points">
              <mxPoint x="520" y="1045" />
              <mxPoint x="750" y="1045" />
              <mxPoint x="750" y="290.00006103515625" />
              <mxPoint x="530" y="290.00006103515625" />
            </Array>
          </mxGeometry>
        </mxCell>
        <mxCell id="43" value="&lt;div style=&#39;width: 23.8333px;height:auto;word-break: break-word;line-height:1em;&#39;&gt;&lt;div align=&quot;center&quot;&gt;&lt;span style=&quot;font-family:Arial;font-size:12px; line-height: normal;&quot;&gt;no&lt;/span&gt;&lt;/div&gt;&lt;/div&gt;" style="text;html=1;nl2Br=0;points=[];labelBackgroundColor=#FFFFFF;html=1;nl2Br=0;verticalAlign=middle;align=center;spacingLeft=0.0;spacingRight=0;gliffyId=202;" parent="42" vertex="1">
          <mxGeometry x="-0.9485204679818251" relative="1" as="geometry">
            <mxPoint as="offset" />
          </mxGeometry>
        </mxCell>
        <mxCell id="44" value="&lt;div style=&#39;width: 93.0px;height:auto;word-break: break-word;line-height:1em;&#39;&gt;&lt;div align=&quot;center&quot;&gt;&lt;span style=&quot;text-decoration:none;font-family:Arial;font-size:12px; line-height: normal;&quot;&gt;run app&lt;/span&gt;&lt;/div&gt;&lt;div align=&quot;center&quot;&gt;&lt;span style=&quot;text-decoration:none;font-family:Arial;font-size:12px; line-height: normal;&quot;&gt;calculation&lt;/span&gt;&lt;/div&gt;&lt;/div&gt;" style="shape=rect;shadow=0;strokeWidth=2;fillColor=#FFFFFF;strokeColor=#333333;opacity=100.0;html=1;nl2Br=0;verticalAlign=middle;align=center;spacingLeft=2.0;spacingRight=0;whiteSpace=wrap;gliffyId=205;" parent="WPHVXafzVZDq" vertex="1">
          <mxGeometry x="420" y="1110" width="100" height="60" as="geometry" />
        </mxCell>
        <mxCell id="45" style="shape=filledEdge;strokeWidth=2;strokeColor=#000000;fillColor=none;startArrow=none;startFill=0;startSize=6;endArrow=open;endFill=0;endSize=6;rounded=1;html=1;nl2Br=0;gliffyId=208;edgeStyle=orthogonalEdgeStyle;" parent="WPHVXafzVZDq" source="17" target="44" edge="1">
          <mxGeometry width="5" height="34" relative="1" as="geometry">
            <Array as="points">
              <mxPoint x="470" y="1070" />
              <mxPoint x="470" y="1083.3333740234375" />
              <mxPoint x="470" y="1096.666748046875" />
              <mxPoint x="470" y="1110" />
            </Array>
          </mxGeometry>
        </mxCell>
        <mxCell id="46" value="&lt;div style=&#39;width: 30.25px;height:auto;word-break: break-word;line-height:1em;&#39;&gt;&lt;div align=&quot;center&quot;&gt;&lt;span style=&quot;font-family:Arial;font-size:12px; line-height: normal;&quot;&gt;yes&lt;/span&gt;&lt;/div&gt;&lt;/div&gt;" style="text;html=1;nl2Br=0;points=[];labelBackgroundColor=#FFFFFF;html=1;nl2Br=0;verticalAlign=middle;align=center;spacingLeft=0.0;spacingRight=0;gliffyId=209;" parent="45" vertex="1">
          <mxGeometry relative="1" as="geometry">
            <mxPoint as="offset" />
          </mxGeometry>
        </mxCell>
        <mxCell id="47" value="&lt;div style=&#39;width: 93.0px;height:auto;word-break: break-word;line-height:1em;&#39;&gt;&lt;div align=&quot;center&quot;&gt;&lt;span style=&quot;font-family:Arial;font-size:12px; line-height: 0;&quot;&gt;&lt;span style=&quot; line-height: normal;&quot;&gt;put app calc&lt;br /&gt;&lt;/span&gt;&lt;/span&gt;&lt;/div&gt;&lt;div align=&quot;center&quot;&gt;&lt;span style=&quot;font-family:Arial;font-size:12px; line-height: 0;&quot;&gt;&lt;span style=&quot; line-height: normal;&quot;&gt;results in&lt;/span&gt;&lt;/span&gt;&lt;/div&gt;&lt;div align=&quot;center&quot;&gt;&lt;span style=&quot;font-family:Arial;font-size:12px; line-height: 0;&quot;&gt;&lt;span style=&quot; line-height: normal;&quot;&gt;output_queue&lt;/span&gt;&lt;/span&gt;&lt;/div&gt;&lt;/div&gt;" style="shape=rect;shadow=0;strokeWidth=2;fillColor=#FFFFFF;strokeColor=#333333;opacity=100.0;html=1;nl2Br=0;verticalAlign=middle;align=center;spacingLeft=2.0;spacingRight=0;whiteSpace=wrap;gliffyId=210;" parent="WPHVXafzVZDq" vertex="1">
          <mxGeometry x="420" y="1200" width="100" height="75" as="geometry" />
        </mxCell>
        <mxCell id="48" style="shape=filledEdge;strokeWidth=2;strokeColor=#000000;fillColor=none;startArrow=none;startFill=0;startSize=6;endArrow=open;endFill=0;endSize=6;rounded=1;gliffyId=213;edgeStyle=orthogonalEdgeStyle;" parent="WPHVXafzVZDq" source="44" target="47" edge="1">
          <mxGeometry width="9" height="32" relative="1" as="geometry">
            <Array as="points">
              <mxPoint x="470" y="1170" />
              <mxPoint x="470" y="1180" />
              <mxPoint x="470" y="1190" />
              <mxPoint x="470" y="1200" />
            </Array>
          </mxGeometry>
        </mxCell>
        <mxCell id="49" style="shape=filledEdge;strokeWidth=2;strokeColor=#000000;fillColor=none;startArrow=none;startFill=0;startSize=6;endArrow=open;endFill=0;endSize=6;rounded=1;gliffyId=216;edgeStyle=orthogonalEdgeStyle;" parent="WPHVXafzVZDq" source="47" target="6" edge="1">
          <mxGeometry width="62" height="982" relative="1" as="geometry">
            <Array as="points">
              <mxPoint x="470" y="1275" />
              <mxPoint x="470" y="1315" />
              <mxPoint x="780" y="1315" />
              <mxPoint x="780" y="290.00006103515625" />
              <mxPoint x="530" y="290.00006103515625" />
            </Array>
          </mxGeometry>
        </mxCell>
      </root>
    </mxGraphModel>
  </diagram>
</mxfile>
